<?xml version="1.0" encoding="UTF-8" standalone="no"?>
<svg
   xmlns:dc="http://purl.org/dc/elements/1.1/"
   xmlns:cc="http://creativecommons.org/ns#"
   xmlns:rdf="http://www.w3.org/1999/02/22-rdf-syntax-ns#"
   xmlns:svg="http://www.w3.org/2000/svg"
   xmlns="http://www.w3.org/2000/svg"
   xmlns:sodipodi="http://sodipodi.sourceforge.net/DTD/sodipodi-0.dtd"
   xmlns:inkscape="http://www.inkscape.org/namespaces/inkscape"
   sodipodi:docname="back_panel.svg"
   inkscape:version="1.0 (4035a4fb49, 2020-05-01)"
   id="svg8"
   version="1.1"
   viewBox="0 0 435 455"
   height="455mm"
   width="435mm">
  <defs
     id="defs2">
    <marker
       inkscape:isstock="true"
       style="overflow:visible"
       id="TriangleOutS"
       refX="0.0"
       refY="0.0"
       orient="auto"
       inkscape:stockid="TriangleOutS">
      <path
         transform="scale(0.2)"
         style="fill-rule:evenodd;stroke:#000000;stroke-width:1pt;stroke-opacity:1;fill:#000000;fill-opacity:1"
         d="M 5.77,0.0 L -2.88,5.0 L -2.88,-5.0 L 5.77,0.0 z "
         id="path1455" />
    </marker>
    <marker
       inkscape:isstock="true"
       style="overflow:visible"
       id="TriangleOutM"
       refX="0.0"
       refY="0.0"
       orient="auto"
       inkscape:stockid="TriangleOutM">
      <path
         transform="scale(0.4)"
         style="fill-rule:evenodd;stroke:#000000;stroke-width:1pt;stroke-opacity:1;fill:#000000;fill-opacity:1"
         d="M 5.77,0.0 L -2.88,5.0 L -2.88,-5.0 L 5.77,0.0 z "
         id="path1452" />
    </marker>
    <marker
       inkscape:isstock="true"
       style="overflow:visible;"
       id="Arrow2Send"
       refX="0.0"
       refY="0.0"
       orient="auto"
       inkscape:stockid="Arrow2Send">
      <path
         transform="scale(0.3) rotate(180) translate(-2.3,0)"
         d="M 8.7185878,4.0337352 L -2.2072895,0.016013256 L 8.7185884,-4.0017078 C 6.9730900,-1.6296469 6.9831476,1.6157441 8.7185878,4.0337352 z "
         style="fill-rule:evenodd;stroke-width:0.625;stroke-linejoin:round;stroke:#000000;stroke-opacity:1;fill:#000000;fill-opacity:1"
         id="path1340" />
    </marker>
    <marker
       inkscape:isstock="true"
       style="overflow:visible;"
       id="marker1717"
       refX="0.0"
       refY="0.0"
       orient="auto"
       inkscape:stockid="Arrow1Send">
      <path
         transform="scale(0.2) rotate(180) translate(6,0)"
         style="fill-rule:evenodd;stroke:#000000;stroke-width:1pt;stroke-opacity:1;fill:#000000;fill-opacity:1"
         d="M 0.0,0.0 L 5.0,-5.0 L -12.5,0.0 L 5.0,5.0 L 0.0,0.0 z "
         id="path1715" />
    </marker>
    <marker
       inkscape:isstock="true"
       style="overflow:visible"
       id="Tail"
       refX="0.0"
       refY="0.0"
       orient="auto"
       inkscape:stockid="Tail">
      <g
         style="stroke:#000000;stroke-opacity:1;fill:#000000;fill-opacity:1"
         transform="scale(-1.2)"
         id="g1355">
        <path
           style="fill:#000000;fill-rule:evenodd;stroke:#000000;stroke-width:0.8;stroke-linecap:round;stroke-opacity:1;fill-opacity:1"
           d="M -3.8048674,-3.9585227 L 0.54352094,0"
           id="path1343" />
        <path
           style="fill:#000000;fill-rule:evenodd;stroke:#000000;stroke-width:0.8;stroke-linecap:round;stroke-opacity:1;fill-opacity:1"
           d="M -1.2866832,-3.9585227 L 3.0617053,0"
           id="path1345" />
        <path
           style="fill:#000000;fill-rule:evenodd;stroke:#000000;stroke-width:0.8;stroke-linecap:round;stroke-opacity:1;fill-opacity:1"
           d="M 1.3053582,-3.9585227 L 5.6537466,0"
           id="path1347" />
        <path
           style="fill:#000000;fill-rule:evenodd;stroke:#000000;stroke-width:0.8;stroke-linecap:round;stroke-opacity:1;fill-opacity:1"
           d="M -3.8048674,4.1775838 L 0.54352094,0.21974226"
           id="path1349" />
        <path
           style="fill:#000000;fill-rule:evenodd;stroke:#000000;stroke-width:0.8;stroke-linecap:round;stroke-opacity:1;fill-opacity:1"
           d="M -1.2866832,4.1775838 L 3.0617053,0.21974226"
           id="path1351" />
        <path
           style="fill:#000000;fill-rule:evenodd;stroke:#000000;stroke-width:0.8;stroke-linecap:round;stroke-opacity:1;fill-opacity:1"
           d="M 1.3053582,4.1775838 L 5.6537466,0.21974226"
           id="path1353" />
      </g>
    </marker>
    <marker
       inkscape:isstock="true"
       style="overflow:visible;"
       id="Arrow1Send"
       refX="0.0"
       refY="0.0"
       orient="auto"
       inkscape:stockid="Arrow1Send">
      <path
         transform="scale(0.2) rotate(180) translate(6,0)"
         style="fill-rule:evenodd;stroke:#000000;stroke-width:1pt;stroke-opacity:1;fill:#000000;fill-opacity:1"
         d="M 0.0,0.0 L 5.0,-5.0 L -12.5,0.0 L 5.0,5.0 L 0.0,0.0 z "
         id="path1322" />
    </marker>
    <marker
       inkscape:isstock="true"
       style="overflow:visible"
       id="Arrow2Sstart"
       refX="0.0"
       refY="0.0"
       orient="auto"
       inkscape:stockid="Arrow2Sstart">
      <path
         transform="scale(0.3) translate(-2.3,0)"
         d="M 8.7185878,4.0337352 L -2.2072895,0.016013256 L 8.7185884,-4.0017078 C 6.9730900,-1.6296469 6.9831476,1.6157441 8.7185878,4.0337352 z "
         style="fill-rule:evenodd;stroke-width:0.625;stroke-linejoin:round;stroke:#000000;stroke-opacity:1;fill:#000000;fill-opacity:1"
         id="path1337" />
    </marker>
    <marker
       inkscape:isstock="true"
       style="overflow:visible"
       id="Arrow2Lstart"
       refX="0.0"
       refY="0.0"
       orient="auto"
       inkscape:stockid="Arrow2Lstart">
      <path
         transform="scale(1.1) translate(1,0)"
         d="M 8.7185878,4.0337352 L -2.2072895,0.016013256 L 8.7185884,-4.0017078 C 6.9730900,-1.6296469 6.9831476,1.6157441 8.7185878,4.0337352 z "
         style="fill-rule:evenodd;stroke-width:0.625;stroke-linejoin:round;stroke:#000000;stroke-opacity:1;fill:#000000;fill-opacity:1"
         id="path1325" />
    </marker>
    <marker
       id="DistanceX"
       orient="auto"
       refX="0.0"
       refY="0.0"
       style="overflow:visible">
      <path
         d="M 3,-3 L -3,3 M 0,-5 L  0,5"
         style="stroke:#000000; stroke-width:0.5"
         id="path2551" />
    </marker>
    <pattern
       id="Hatch"
       patternUnits="userSpaceOnUse"
       width="8"
       height="8"
       x="0"
       y="0">
      <path
         d="M8 4 l-4,4"
         stroke="#000000"
         stroke-width="0.25"
         linecap="square"
         id="path2554" />
      <path
         d="M6 2 l-4,4"
         stroke="#000000"
         stroke-width="0.25"
         linecap="square"
         id="path2556" />
      <path
         d="M4 0 l-4,4"
         stroke="#000000"
         stroke-width="0.25"
         linecap="square"
         id="path2558" />
    </pattern>
    <symbol
       id="*MODEL_SPACE" />
    <symbol
       id="*PAPER_SPACE" />
    <marker
       id="DistanceX-6"
       orient="auto"
       refX="0.0"
       refY="0.0"
       style="overflow:visible">
      <path
         d="M 3,-3 L -3,3 M 0,-5 L  0,5"
         style="stroke:#000000; stroke-width:0.5"
         id="path2734" />
    </marker>
    <pattern
       id="Hatch-7"
       patternUnits="userSpaceOnUse"
       width="8"
       height="8"
       x="0"
       y="0">
      <path
         d="M8 4 l-4,4"
         stroke="#000000"
         stroke-width="0.25"
         linecap="square"
         id="path2737" />
      <path
         d="M6 2 l-4,4"
         stroke="#000000"
         stroke-width="0.25"
         linecap="square"
         id="path2739" />
      <path
         d="M4 0 l-4,4"
         stroke="#000000"
         stroke-width="0.25"
         linecap="square"
         id="path2741" />
    </pattern>
    <symbol
       id="*MODEL_SPACE-2" />
    <symbol
       id="*PAPER_SPACE-7" />
  </defs>
  <sodipodi:namedview
     inkscape:window-maximized="1"
     inkscape:window-y="-8"
     inkscape:window-x="-8"
     inkscape:window-height="1017"
     inkscape:window-width="1920"
     inkscape:snap-object-midpoints="true"
     inkscape:snap-center="true"
     inkscape:snap-midpoints="true"
     inkscape:snap-bbox="true"
     inkscape:guide-bbox="true"
     showguides="true"
     showgrid="false"
     inkscape:document-rotation="0"
     inkscape:current-layer="layer1"
     inkscape:document-units="mm"
     inkscape:cy="1020.3349"
     inkscape:cx="215.19047"
     inkscape:zoom="0.25"
     inkscape:pageshadow="2"
     inkscape:pageopacity="0.0"
     borderopacity="1.0"
     bordercolor="#666666"
     pagecolor="#ffffff"
     id="base">
    <sodipodi:guide
       inkscape:color="rgb(0,0,255)"
       inkscape:locked="false"
       inkscape:label=""
       id="guide833"
       orientation="0,1"
       position="155.5372,105" />
    <sodipodi:guide
       inkscape:color="rgb(0,0,255)"
       inkscape:locked="false"
       inkscape:label=""
       id="guide835"
       orientation="-1,0"
       position="217.5,105" />
    <sodipodi:guide
       inkscape:color="rgb(0,0,255)"
       inkscape:locked="false"
       inkscape:label=""
       id="guide837"
       orientation="0,1"
       position="46.869048,85" />
    <sodipodi:guide
       inkscape:color="rgb(0,0,255)"
       inkscape:locked="false"
       inkscape:label=""
       id="guide839"
       orientation="-1,0"
       position="190,105" />
    <sodipodi:guide
       id="guide903"
       orientation="0,-1"
       position="190,305" />
    <sodipodi:guide
       inkscape:color="rgb(0,0,255)"
       inkscape:locked="false"
       inkscape:label=""
       id="guide2164"
       orientation="-1,0"
       position="7,164.74529" />
    <sodipodi:guide
       inkscape:color="rgb(0,0,255)"
       inkscape:locked="false"
       inkscape:label=""
       id="guide2166"
       orientation="-1,0"
       position="49,105" />
    <sodipodi:guide
       inkscape:color="rgb(0,0,255)"
       inkscape:locked="false"
       inkscape:label=""
       id="guide2168"
       orientation="-1,0"
       position="428,84.999999" />
    <sodipodi:guide
       inkscape:color="rgb(0,0,255)"
       inkscape:locked="false"
       inkscape:label=""
       id="guide2170"
       orientation="-1,0"
       position="386,27.903295" />
    <sodipodi:guide
       inkscape:color="rgb(0,0,255)"
       inkscape:locked="false"
       inkscape:label=""
       id="guide2519"
       orientation="0.5,0.8660254"
       position="-185.9524,519.27653" />
    <sodipodi:guide
       id="guide2521"
       orientation="1,0"
       position="-185.9524,519.27653" />
    <sodipodi:guide
       inkscape:color="rgb(0,0,255)"
       inkscape:locked="false"
       inkscape:label=""
       id="guide2523"
       orientation="0.8660254,-0.5"
       position="-198.4375,511.88541" />
    <sodipodi:guide
       inkscape:color="rgb(0,0,255)"
       inkscape:locked="false"
       inkscape:label=""
       id="guide2529"
       orientation="-1,0"
       position="237.5,467.82893" />
    <sodipodi:guide
       inkscape:color="rgb(0,0,255)"
       inkscape:locked="false"
       inkscape:label=""
       id="guide2541"
       orientation="0.8660254,-0.5"
       position="-140.22917,483.31041" />
    <sodipodi:guide
       id="guide2543"
       orientation="0,-1"
       position="-222.25,496.53958" />
    <sodipodi:guide
       id="guide2545"
       orientation="0,-1"
       position="4.1159507,438.62974" />
    <sodipodi:guide
       id="guide2547"
       orientation="0,-1"
       position="-231.88534,466.23773" />
    <sodipodi:guide
       inkscape:color="rgb(0,0,255)"
       inkscape:locked="false"
       inkscape:label=""
       id="guide3788"
       orientation="0,1"
       position="-18.33469,448" />
  </sodipodi:namedview>
  <metadata
     id="metadata5">
    <rdf:RDF>
      <cc:Work
         rdf:about="">
        <dc:format>image/svg+xml</dc:format>
        <dc:type
           rdf:resource="http://purl.org/dc/dcmitype/StillImage" />
        <dc:title></dc:title>
      </cc:Work>
    </rdf:RDF>
  </metadata>
  <g
     id="layer1"
     inkscape:groupmode="layer"
     inkscape:label="Calque 1">
    <path
       transform="scale(0.26458333)"
       d="M 0 0 L 0 1719.6855 L 1644.0938 1719.6855 L 1644.0938 0 L 1099.8418 0 L 1099.8418 151.18164 L 544.25195 151.18164 L 544.25195 0 L 0 0 z "
       style="fill:#000000;stroke:none;stroke-width:11.3386;stroke-linecap:round;stroke-linejoin:round;stroke-miterlimit:4;stroke-dasharray:none;paint-order:stroke fill markers"
       id="rect2513" />
    <path
       id="path2150"
       d="m 237.5,347.99995 v 2.99981 h 19.99981 v -2.99981 z"
       style="fill:#ff6600;stroke-width:4.51527;stroke-linecap:round;stroke-linejoin:round;paint-order:stroke fill markers" />
    <path
       id="path2148"
       d="m 237.5,338.00004 v 2.24999 0.74983 h 9.50949 v -2.99982 z"
       style="fill:#ff6600;stroke-width:4.51527;stroke-linecap:round;stroke-linejoin:round;paint-order:stroke fill markers" />
    <path
       id="path2146"
       d="m 237.5,328.00012 v 2.99982 h 9.50949 v -2.99982 z"
       style="fill:#ff6600;stroke-width:4.51527;stroke-linecap:round;stroke-linejoin:round;paint-order:stroke fill markers" />
    <path
       id="path2144"
       d="m 237.5,318.00022 v 2.99982 h 9.50949 v -2.99982 z"
       style="fill:#ff6600;stroke-width:4.51527;stroke-linecap:round;stroke-linejoin:round;paint-order:stroke fill markers" />
    <path
       id="path2142"
       d="m 237.5,307.99981 v 3.00033 h 9.50949 v -3.00033 z"
       style="fill:#ff6600;stroke-width:4.51527;stroke-linecap:round;stroke-linejoin:round;paint-order:stroke fill markers" />
    <path
       id="path2140"
       d="m 237.5,297.99989 v 3.00035 h 19.99981 v -3.00035 z"
       style="fill:#ff6600;stroke-width:4.51527;stroke-linecap:round;stroke-linejoin:round;paint-order:stroke fill markers" />
    <path
       id="path2138"
       d="m 237.5,287.99999 v 2.99982 h 9.50949 v -2.99982 z"
       style="fill:#ff6600;stroke-width:4.51527;stroke-linecap:round;stroke-linejoin:round;paint-order:stroke fill markers" />
    <path
       id="path2136"
       d="m 237.5,278.00009 v 2.99982 h 9.50949 v -2.99982 z"
       style="fill:#ff6600;stroke-width:4.51527;stroke-linecap:round;stroke-linejoin:round;paint-order:stroke fill markers" />
    <path
       id="path2134"
       d="M 237.5,268.00019 V 271 h 9.50949 v -2.99981 z"
       style="fill:#ff6600;stroke-width:4.51527;stroke-linecap:round;stroke-linejoin:round;paint-order:stroke fill markers" />
    <path
       id="path2132"
       d="m 237.5,257.99975 v 3.00034 h 9.50949 v -3.00034 z"
       style="fill:#ff6600;stroke-width:4.51527;stroke-linecap:round;stroke-linejoin:round;paint-order:stroke fill markers" />
    <path
       id="path2130"
       d="m 237.5,247.99985 v 3.00033 h 19.99981 v -3.00033 z"
       style="fill:#ff6600;stroke-width:4.51527;stroke-linecap:round;stroke-linejoin:round;paint-order:stroke fill markers" />
    <path
       id="path2128"
       d="m 237.5,237.99994 v 2.99982 h 9.50949 v -2.99982 z"
       style="fill:#ff6600;stroke-width:4.51527;stroke-linecap:round;stroke-linejoin:round;paint-order:stroke fill markers" />
    <path
       id="path2126"
       d="m 237.5,228.00003 v 2.99982 h 9.50949 v -2.99982 z"
       style="fill:#ff6600;stroke-width:4.51527;stroke-linecap:round;stroke-linejoin:round;paint-order:stroke fill markers" />
    <path
       id="path2124"
       d="m 237.5,218.00013 v 2.99981 h 9.50949 v -2.99981 z"
       style="fill:#ff6600;stroke-width:4.51527;stroke-linecap:round;stroke-linejoin:round;paint-order:stroke fill markers" />
    <path
       id="path2122"
       d="m 237.5,208.00022 v 2.99982 h 9.50949 v -2.99982 z"
       style="fill:#ff6600;stroke-width:4.51527;stroke-linecap:round;stroke-linejoin:round;paint-order:stroke fill markers" />
    <path
       id="path2120"
       d="m 237.5,197.9998 v 3.00033 h 19.99981 v -3.00033 z"
       style="fill:#ff6600;stroke-width:4.51527;stroke-linecap:round;stroke-linejoin:round;paint-order:stroke fill markers" />
    <path
       id="path2118"
       d="m 237.5,187.99989 v 3.00033 h 9.50949 v -3.00033 z"
       style="fill:#ff6600;stroke-width:4.51527;stroke-linecap:round;stroke-linejoin:round;paint-order:stroke fill markers" />
    <path
       id="path2116"
       d="m 237.5,177.99999 v 2.99981 h 9.50949 v -2.99981 z"
       style="fill:#ff6600;stroke-width:4.51527;stroke-linecap:round;stroke-linejoin:round;paint-order:stroke fill markers" />
    <path
       id="path2114"
       d="m 237.5,168.00008 v 2.99982 h 9.50949 v -2.99982 z"
       style="fill:#ff6600;stroke-width:4.51527;stroke-linecap:round;stroke-linejoin:round;paint-order:stroke fill markers" />
    <path
       id="path2112"
       d="m 237.5,158.00017 v 2.99982 h 9.50949 v -2.99982 z"
       style="fill:#ff6600;stroke-width:4.51527;stroke-linecap:round;stroke-linejoin:round;paint-order:stroke fill markers" />
    <path
       id="path2110"
       d="m 237.5,147.99975 v 3.00033 h 19.99981 v -3.00033 z"
       style="fill:#ff6600;stroke-width:4.51527;stroke-linecap:round;stroke-linejoin:round;paint-order:stroke fill markers" />
    <path
       id="path2108"
       d="m 237.5,137.99984 v 3.00034 h 9.50949 v -3.00034 z"
       style="fill:#ff6600;stroke-width:4.51527;stroke-linecap:round;stroke-linejoin:round;paint-order:stroke fill markers" />
    <path
       id="path2106"
       d="m 237.5,127.99994 v 2.99981 h 9.50949 v -2.99981 z"
       style="fill:#ff6600;stroke-width:4.51527;stroke-linecap:round;stroke-linejoin:round;paint-order:stroke fill markers" />
    <path
       id="path2104"
       d="m 237.5,118.00003 v 2.99982 h 9.50949 v -2.99982 z"
       style="fill:#ff6600;stroke-width:4.51527;stroke-linecap:round;stroke-linejoin:round;paint-order:stroke fill markers" />
    <path
       id="path2102"
       d="m 237.5,108.00012 v 2.99982 h 9.50949 v -2.99982 z"
       style="fill:#ff6600;stroke-width:4.51527;stroke-linecap:round;stroke-linejoin:round;paint-order:stroke fill markers" />
    <path
       id="path2100"
       d="m 237.5,98.000218 v 2.999812 h 19.99981 v -2.999812 z"
       style="fill:#ff6600;stroke-width:4.51527;stroke-linecap:round;stroke-linejoin:round;paint-order:stroke fill markers" />
    <path
       id="path2098"
       d="m 237.5,87.999796 v 3.000333 h 9.50949 v -3.000333 z"
       style="fill:#ff6600;stroke-width:4.51527;stroke-linecap:round;stroke-linejoin:round;paint-order:stroke fill markers" />
    <path
       id="path2096"
       d="m 237.5,77.999888 v 3.000335 h 9.50949 v -3.000335 z"
       style="fill:#ff6600;stroke-width:4.51527;stroke-linecap:round;stroke-linejoin:round;paint-order:stroke fill markers" />
    <path
       id="rect841"
       d="m 237.5,67.999982 v 2.999817 h 9.50949 v -2.999817 z"
       style="fill:#ff6600;stroke-width:4.51527;stroke-linecap:round;stroke-linejoin:round;paint-order:stroke fill markers" />
    <g
       style="font-style:normal;font-variant:normal;font-weight:bold;font-stretch:normal;font-size:14.1111px;line-height:1.25;font-family:Play;-inkscape-font-specification:'Play Bold';text-align:end;letter-spacing:-0.0132292px;word-spacing:0px;text-anchor:end;fill:#ff6600;stroke-width:0.264583"
       id="text919"
       aria-label="0">
      <path
         id="path3690"
         style="font-style:normal;font-variant:normal;font-weight:bold;font-stretch:normal;font-size:14.1111px;font-family:Play;-inkscape-font-specification:'Play Bold';text-align:end;text-anchor:end;fill:#ff6600;stroke-width:0.264583"
         d="m 265.88518,352.10541 q -0.62089,0 -1.016,-0.0423 -0.39511,-0.0423 -0.86077,-0.16933 -0.47978,-0.14111 -0.77611,-0.39511 -0.29634,-0.26811 -0.49389,-0.762 -0.21167,-0.47978 -0.21167,-1.15711 v -4.38855 q 0,-0.64911 0.19756,-1.143 0.19755,-0.49389 0.508,-0.77611 0.26811,-0.23989 0.73377,-0.381 0.46567,-0.15523 0.93134,-0.19756 0.53622,-0.0282 0.98777,-0.0282 0.635,0 1.016,0.0423 0.381,0.0282 0.84667,0.16934 0.508,0.15522 0.80433,0.40922 0.29633,0.254 0.508,0.73378 0.21167,0.47977 0.21167,1.17122 v 4.38855 q 0,0.64911 -0.21167,1.143 -0.19756,0.49389 -0.508,0.762 -0.28222,0.23989 -0.77611,0.39511 -0.47978,0.15522 -0.91722,0.18344 -0.39511,0.0423 -0.97367,0.0423 z m 0.0282,-1.32645 q 0.59267,0 0.84667,-0.0705 0.254,-0.0847 0.33867,-0.29634 0.0847,-0.21166 0.0847,-0.69144 v -4.67077 q 0,-0.47978 -0.0847,-0.69145 -0.0847,-0.21167 -0.33867,-0.28222 -0.254,-0.0847 -0.84667,-0.0847 -0.60677,0 -0.87488,0.0847 -0.254,0.0706 -0.33867,0.28222 -0.0847,0.21167 -0.0847,0.69145 v 4.67077 q 0,0.47978 0.0847,0.69144 0.0847,0.21167 0.33867,0.29634 0.26811,0.0705 0.87488,0.0705 z" />
    </g>
    <g
       style="font-style:normal;font-variant:normal;font-weight:bold;font-stretch:normal;font-size:14.1111px;line-height:1.25;font-family:Play;-inkscape-font-specification:'Play Bold';text-align:end;letter-spacing:-0.0132292px;word-spacing:0px;text-anchor:end;fill:#ff6600;stroke-width:0.264583"
       id="text935"
       aria-label="50">
      <path
         id="path3693"
         style="font-style:normal;font-variant:normal;font-weight:bold;font-stretch:normal;font-size:14.1111px;font-family:Play;-inkscape-font-specification:'Play Bold';text-align:end;text-anchor:end;fill:#ff6600;stroke-width:0.264583"
         d="m 265.44773,302.10541 q -0.97367,0 -2.921,-0.15523 v -1.70744 q 1.74978,0.32456 2.63877,0.32456 0.77612,0 1.12889,-0.16934 0.35278,-0.18344 0.35278,-0.56444 v -1.36878 q 0,-0.381 -0.254,-0.53622 -0.254,-0.16933 -0.83255,-0.16933 h -2.82222 v -4.953 h 5.78555 v 1.58044 h -3.72533 v 1.86267 h 1.43933 q 0.81844,0 1.59455,0.31044 0.42334,0.18345 0.67734,0.56445 0.254,0.381 0.254,0.889 v 1.91911 q 0,0.55033 -0.21167,0.98777 -0.21167,0.42334 -0.53622,0.64911 -0.28223,0.21167 -0.762,0.33867 -0.46567,0.127 -0.90311,0.16933 -0.508,0.0282 -0.90311,0.0282 z" />
      <path
         id="path3695"
         style="font-style:normal;font-variant:normal;font-weight:bold;font-stretch:normal;font-size:14.1111px;font-family:Play;-inkscape-font-specification:'Play Bold';text-align:end;text-anchor:end;fill:#ff6600;stroke-width:0.264583"
         d="m 273.91637,302.10541 q -0.62089,0 -1.016,-0.0423 -0.39511,-0.0423 -0.86078,-0.16933 -0.47977,-0.14111 -0.77611,-0.39511 -0.29633,-0.26811 -0.49388,-0.762 -0.21167,-0.47978 -0.21167,-1.15711 v -4.38855 q 0,-0.64911 0.19755,-1.143 0.19756,-0.49389 0.508,-0.77611 0.26811,-0.23989 0.73378,-0.381 0.46567,-0.15523 0.93133,-0.19756 0.53623,-0.0282 0.98778,-0.0282 0.635,0 1.016,0.0423 0.381,0.0282 0.84667,0.16934 0.508,0.15522 0.80433,0.40922 0.29633,0.254 0.508,0.73378 0.21166,0.47977 0.21166,1.17122 v 4.38855 q 0,0.64911 -0.21166,1.143 -0.19756,0.49389 -0.508,0.762 -0.28222,0.23989 -0.77611,0.39511 -0.47978,0.15522 -0.91722,0.18344 -0.39511,0.0423 -0.97367,0.0423 z m 0.0282,-1.32645 q 0.59267,0 0.84667,-0.0705 0.254,-0.0847 0.33867,-0.29634 0.0847,-0.21166 0.0847,-0.69144 v -4.67077 q 0,-0.47978 -0.0847,-0.69145 -0.0847,-0.21167 -0.33867,-0.28222 -0.254,-0.0847 -0.84667,-0.0847 -0.60677,0 -0.87489,0.0847 -0.254,0.0706 -0.33866,0.28222 -0.0847,0.21167 -0.0847,0.69145 v 4.67077 q 0,0.47978 0.0847,0.69144 0.0847,0.21167 0.33866,0.29634 0.26812,0.0705 0.87489,0.0705 z" />
    </g>
    <g
       style="font-style:normal;font-variant:normal;font-weight:bold;font-stretch:normal;font-size:14.1111px;line-height:1.25;font-family:Play;-inkscape-font-specification:'Play Bold';text-align:end;letter-spacing:-0.0132292px;word-spacing:0px;text-anchor:end;fill:#ff6600;stroke-width:0.264583"
       id="text939"
       aria-label="100">
      <path
         id="path3698"
         style="font-style:normal;font-variant:normal;font-weight:bold;font-stretch:normal;font-size:14.1111px;font-family:Play;-inkscape-font-specification:'Play Bold';text-align:end;text-anchor:end;fill:#ff6600;stroke-width:0.264583"
         d="m 265.0244,244.96519 -2.49767,1.38289 v -1.73567 l 2.89278,-1.80622 h 1.66511 v 9.1581 h -2.06022 z" />
      <path
         id="path3700"
         style="font-style:normal;font-variant:normal;font-weight:bold;font-stretch:normal;font-size:14.1111px;font-family:Play;-inkscape-font-specification:'Play Bold';text-align:end;text-anchor:end;fill:#ff6600;stroke-width:0.264583"
         d="m 273.57771,252.10541 q -0.62089,0 -1.016,-0.0423 -0.39511,-0.0423 -0.86078,-0.16933 -0.47978,-0.14111 -0.77611,-0.39511 -0.29633,-0.26811 -0.49389,-0.762 -0.21166,-0.47978 -0.21166,-1.15711 v -4.38855 q 0,-0.64911 0.19755,-1.143 0.19756,-0.49389 0.508,-0.77611 0.26811,-0.23989 0.73378,-0.381 0.46566,-0.15523 0.93133,-0.19756 0.53622,-0.0282 0.98778,-0.0282 0.635,0 1.016,0.0423 0.381,0.0282 0.84666,0.16934 0.508,0.15522 0.80434,0.40922 0.29633,0.254 0.508,0.73378 0.21166,0.47977 0.21166,1.17122 v 4.38855 q 0,0.64911 -0.21166,1.143 -0.19756,0.49389 -0.508,0.762 -0.28223,0.23989 -0.77611,0.39511 -0.47978,0.15522 -0.91723,0.18344 -0.39511,0.0423 -0.97366,0.0423 z m 0.0282,-1.32645 q 0.59267,0 0.84667,-0.0706 0.254,-0.0847 0.33866,-0.29634 0.0847,-0.21166 0.0847,-0.69144 v -4.67077 q 0,-0.47978 -0.0847,-0.69145 -0.0847,-0.21167 -0.33866,-0.28222 -0.254,-0.0847 -0.84667,-0.0847 -0.60678,0 -0.87489,0.0847 -0.254,0.0705 -0.33866,0.28222 -0.0847,0.21167 -0.0847,0.69145 v 4.67077 q 0,0.47978 0.0847,0.69144 0.0847,0.21167 0.33866,0.29634 0.26811,0.0706 0.87489,0.0706 z" />
      <path
         id="path3702"
         style="font-style:normal;font-variant:normal;font-weight:bold;font-stretch:normal;font-size:14.1111px;font-family:Play;-inkscape-font-specification:'Play Bold';text-align:end;text-anchor:end;fill:#ff6600;stroke-width:0.264583"
         d="m 281.75002,252.10541 q -0.62089,0 -1.016,-0.0423 -0.39511,-0.0423 -0.86078,-0.16933 -0.47977,-0.14111 -0.77611,-0.39511 -0.29633,-0.26811 -0.49389,-0.762 -0.21166,-0.47978 -0.21166,-1.15711 v -4.38855 q 0,-0.64911 0.19755,-1.143 0.19756,-0.49389 0.508,-0.77611 0.26811,-0.23989 0.73378,-0.381 0.46567,-0.15523 0.93133,-0.19756 0.53622,-0.0282 0.98778,-0.0282 0.635,0 1.016,0.0423 0.381,0.0282 0.84666,0.16934 0.508,0.15522 0.80434,0.40922 0.29633,0.254 0.508,0.73378 0.21166,0.47977 0.21166,1.17122 v 4.38855 q 0,0.64911 -0.21166,1.143 -0.19756,0.49389 -0.508,0.762 -0.28223,0.23989 -0.77611,0.39511 -0.47978,0.15522 -0.91723,0.18344 -0.39511,0.0423 -0.97366,0.0423 z m 0.0282,-1.32645 q 0.59267,0 0.84667,-0.0706 0.254,-0.0847 0.33866,-0.29634 0.0847,-0.21166 0.0847,-0.69144 v -4.67077 q 0,-0.47978 -0.0847,-0.69145 -0.0847,-0.21167 -0.33866,-0.28222 -0.254,-0.0847 -0.84667,-0.0847 -0.60678,0 -0.87489,0.0847 -0.254,0.0705 -0.33866,0.28222 -0.0847,0.21167 -0.0847,0.69145 v 4.67077 q 0,0.47978 0.0847,0.69144 0.0847,0.21167 0.33866,0.29634 0.26811,0.0706 0.87489,0.0706 z" />
    </g>
    <g
       style="font-style:normal;font-variant:normal;font-weight:bold;font-stretch:normal;font-size:14.1111px;line-height:1.25;font-family:Play;-inkscape-font-specification:'Play Bold';text-align:end;letter-spacing:-0.0132292px;word-spacing:0px;text-anchor:end;fill:#ff6600;stroke-width:0.264583"
       id="text943"
       aria-label="150">
      <path
         id="path3705"
         style="font-style:normal;font-variant:normal;font-weight:bold;font-stretch:normal;font-size:14.1111px;font-family:Play;-inkscape-font-specification:'Play Bold';text-align:end;text-anchor:end;fill:#ff6600;stroke-width:0.264583"
         d="m 265.0244,194.96519 -2.49767,1.38289 v -1.73567 l 2.89278,-1.80622 h 1.66511 v 9.1581 h -2.06022 z" />
      <path
         id="path3707"
         style="font-style:normal;font-variant:normal;font-weight:bold;font-stretch:normal;font-size:14.1111px;font-family:Play;-inkscape-font-specification:'Play Bold';text-align:end;text-anchor:end;fill:#ff6600;stroke-width:0.264583"
         d="m 273.28137,202.10541 q -0.97366,0 -2.92099,-0.15523 v -1.70744 q 1.74977,0.32456 2.63877,0.32456 0.77611,0 1.12889,-0.16934 0.35278,-0.18344 0.35278,-0.56444 v -1.36878 q 0,-0.381 -0.254,-0.53622 -0.254,-0.16933 -0.83256,-0.16933 h -2.82222 v -4.953 h 5.78555 v 1.58044 h -3.72533 v 1.86267 h 1.43934 q 0.81844,0 1.59455,0.31044 0.42333,0.18345 0.67733,0.56445 0.254,0.381 0.254,0.889 v 1.91911 q 0,0.55033 -0.21166,0.98777 -0.21167,0.42334 -0.53622,0.64911 -0.28223,0.21167 -0.762,0.33867 -0.46567,0.127 -0.90311,0.16933 -0.508,0.0282 -0.90312,0.0282 z" />
      <path
         id="path3709"
         style="font-style:normal;font-variant:normal;font-weight:bold;font-stretch:normal;font-size:14.1111px;font-family:Play;-inkscape-font-specification:'Play Bold';text-align:end;text-anchor:end;fill:#ff6600;stroke-width:0.264583"
         d="m 281.75002,202.10541 q -0.62089,0 -1.016,-0.0423 -0.39511,-0.0423 -0.86078,-0.16933 -0.47977,-0.14111 -0.77611,-0.39511 -0.29633,-0.26811 -0.49389,-0.762 -0.21166,-0.47978 -0.21166,-1.15711 v -4.38855 q 0,-0.64911 0.19755,-1.143 0.19756,-0.49389 0.508,-0.77611 0.26811,-0.23989 0.73378,-0.381 0.46567,-0.15523 0.93133,-0.19756 0.53622,-0.0282 0.98778,-0.0282 0.635,0 1.016,0.0423 0.381,0.0282 0.84666,0.16934 0.508,0.15522 0.80434,0.40922 0.29633,0.254 0.508,0.73378 0.21166,0.47977 0.21166,1.17122 v 4.38855 q 0,0.64911 -0.21166,1.143 -0.19756,0.49389 -0.508,0.762 -0.28223,0.23989 -0.77611,0.39511 -0.47978,0.15522 -0.91723,0.18344 -0.39511,0.0423 -0.97366,0.0423 z m 0.0282,-1.32645 q 0.59267,0 0.84667,-0.0706 0.254,-0.0847 0.33866,-0.29634 0.0847,-0.21166 0.0847,-0.69144 v -4.67077 q 0,-0.47978 -0.0847,-0.69145 -0.0847,-0.21167 -0.33866,-0.28222 -0.254,-0.0847 -0.84667,-0.0847 -0.60678,0 -0.87489,0.0847 -0.254,0.0705 -0.33866,0.28222 -0.0847,0.21167 -0.0847,0.69145 v 4.67077 q 0,0.47978 0.0847,0.69144 0.0847,0.21167 0.33866,0.29634 0.26811,0.0706 0.87489,0.0706 z" />
    </g>
    <g
       style="font-style:normal;font-variant:normal;font-weight:bold;font-stretch:normal;font-size:14.1111px;line-height:1.25;font-family:Play;-inkscape-font-specification:'Play Bold';text-align:end;letter-spacing:-0.0132292px;word-spacing:0px;text-anchor:end;fill:#ff6600;stroke-width:0.264583"
       id="text947"
       aria-label="200">
      <path
         id="path3712"
         style="font-style:normal;font-variant:normal;font-weight:bold;font-stretch:normal;font-size:14.1111px;font-family:Play;-inkscape-font-specification:'Play Bold';text-align:end;text-anchor:end;fill:#ff6600;stroke-width:0.264583"
         d="m 262.52674,149.87585 q 0,-0.762 0.42334,-1.32644 0.42333,-0.56445 1.10066,-0.86078 0.53623,-0.23989 1.25589,-0.47978 0.71967,-0.23989 1.11478,-0.508 0.39511,-0.26811 0.39511,-0.635 v -1.17122 q 0,-0.43744 -0.35278,-0.57855 -0.381,-0.15522 -1.18533,-0.15522 -0.97367,0 -2.56822,0.35277 v -1.55222 q 1.41111,-0.29633 2.94922,-0.29633 1.66511,0 2.46944,0.508 0.81845,0.508 0.81845,1.69333 v 1.27 q 0,0.71967 -0.43745,1.25589 -0.42333,0.52211 -1.10066,0.79022 -0.635,0.26811 -1.29823,0.47978 -0.71966,0.254 -1.14299,0.56444 -0.40923,0.31045 -0.40923,0.73378 v 0.46566 h 4.40267 v 1.53811 h -6.43467 z" />
      <path
         id="path3714"
         style="font-style:normal;font-variant:normal;font-weight:bold;font-stretch:normal;font-size:14.1111px;font-family:Play;-inkscape-font-specification:'Play Bold';text-align:end;text-anchor:end;fill:#ff6600;stroke-width:0.264583"
         d="m 273.95872,152.10541 q -0.62089,0 -1.016,-0.0423 -0.39511,-0.0423 -0.86078,-0.16933 -0.47977,-0.14111 -0.77611,-0.39511 -0.29633,-0.26811 -0.49389,-0.762 -0.21166,-0.47978 -0.21166,-1.15711 v -4.38855 q 0,-0.64911 0.19755,-1.143 0.19756,-0.49389 0.508,-0.77611 0.26811,-0.23989 0.73378,-0.381 0.46567,-0.15523 0.93133,-0.19756 0.53622,-0.0282 0.98778,-0.0282 0.635,0 1.016,0.0423 0.381,0.0282 0.84667,0.16934 0.50799,0.15522 0.80433,0.40922 0.29633,0.254 0.508,0.73378 0.21166,0.47977 0.21166,1.17122 v 4.38855 q 0,0.64911 -0.21166,1.143 -0.19756,0.49389 -0.508,0.762 -0.28222,0.23989 -0.77611,0.39511 -0.47978,0.15522 -0.91722,0.18344 -0.39511,0.0423 -0.97367,0.0423 z m 0.0282,-1.32645 q 0.59267,0 0.84667,-0.0706 0.254,-0.0847 0.33866,-0.29634 0.0847,-0.21166 0.0847,-0.69144 v -4.67077 q 0,-0.47978 -0.0847,-0.69145 -0.0847,-0.21167 -0.33866,-0.28222 -0.254,-0.0847 -0.84667,-0.0847 -0.60678,0 -0.87489,0.0847 -0.254,0.0705 -0.33866,0.28222 -0.0847,0.21167 -0.0847,0.69145 v 4.67077 q 0,0.47978 0.0847,0.69144 0.0847,0.21167 0.33866,0.29634 0.26811,0.0706 0.87489,0.0706 z" />
      <path
         id="path3716"
         style="font-style:normal;font-variant:normal;font-weight:bold;font-stretch:normal;font-size:14.1111px;font-family:Play;-inkscape-font-specification:'Play Bold';text-align:end;text-anchor:end;fill:#ff6600;stroke-width:0.264583"
         d="m 282.13103,152.10541 q -0.62089,0 -1.016,-0.0423 -0.39511,-0.0423 -0.86078,-0.16933 -0.47977,-0.14111 -0.77611,-0.39511 -0.29633,-0.26811 -0.49388,-0.762 -0.21167,-0.47978 -0.21167,-1.15711 v -4.38855 q 0,-0.64911 0.19755,-1.143 0.19756,-0.49389 0.508,-0.77611 0.26811,-0.23989 0.73378,-0.381 0.46567,-0.15523 0.93133,-0.19756 0.53623,-0.0282 0.98778,-0.0282 0.635,0 1.016,0.0423 0.381,0.0282 0.84667,0.16934 0.508,0.15522 0.80433,0.40922 0.29633,0.254 0.508,0.73378 0.21166,0.47977 0.21166,1.17122 v 4.38855 q 0,0.64911 -0.21166,1.143 -0.19756,0.49389 -0.508,0.762 -0.28222,0.23989 -0.77611,0.39511 -0.47978,0.15522 -0.91722,0.18344 -0.39511,0.0423 -0.97367,0.0423 z m 0.0282,-1.32645 q 0.59267,0 0.84667,-0.0706 0.254,-0.0847 0.33867,-0.29634 0.0847,-0.21166 0.0847,-0.69144 v -4.67077 q 0,-0.47978 -0.0847,-0.69145 -0.0847,-0.21167 -0.33867,-0.28222 -0.254,-0.0847 -0.84667,-0.0847 -0.60677,0 -0.87489,0.0847 -0.254,0.0705 -0.33866,0.28222 -0.0847,0.21167 -0.0847,0.69145 v 4.67077 q 0,0.47978 0.0847,0.69144 0.0847,0.21167 0.33866,0.29634 0.26812,0.0706 0.87489,0.0706 z" />
    </g>
    <g
       style="font-style:normal;font-variant:normal;font-weight:bold;font-stretch:normal;font-size:14.1111px;line-height:1.25;font-family:Play;-inkscape-font-specification:'Play Bold';text-align:end;letter-spacing:-0.0132292px;word-spacing:0px;text-anchor:end;fill:#ff6600;stroke-width:0.264583"
       id="text951"
       aria-label="250">
      <path
         id="path3719"
         style="font-style:normal;font-variant:normal;font-weight:bold;font-stretch:normal;font-size:14.1111px;font-family:Play;-inkscape-font-specification:'Play Bold';text-align:end;text-anchor:end;fill:#ff6600;stroke-width:0.264583"
         d="m 262.52674,99.875844 q 0,-0.761999 0.42334,-1.326443 0.42333,-0.564444 1.10066,-0.860778 0.53623,-0.239888 1.25589,-0.479777 0.71967,-0.239889 1.11478,-0.508 0.39511,-0.26811 0.39511,-0.634999 v -1.171221 q 0,-0.437445 -0.35278,-0.578556 -0.381,-0.155222 -1.18533,-0.155222 -0.97367,0 -2.56822,0.352778 v -1.552221 q 1.41111,-0.296333 2.94922,-0.296333 1.66511,0 2.46944,0.507999 0.81845,0.508 0.81845,1.693332 v 1.269999 q 0,0.719667 -0.43745,1.255888 -0.42333,0.522111 -1.10066,0.790222 -0.635,0.268111 -1.29823,0.479777 -0.71966,0.254 -1.14299,0.564444 -0.40923,0.310445 -0.40923,0.733778 v 0.465669 h 4.40267 v 1.53811 h -6.43467 z" />
      <path
         id="path3721"
         style="font-style:normal;font-variant:normal;font-weight:bold;font-stretch:normal;font-size:14.1111px;font-family:Play;-inkscape-font-specification:'Play Bold';text-align:end;text-anchor:end;fill:#ff6600;stroke-width:0.264583"
         d="m 273.66239,102.1054 q -0.97367,0 -2.921,-0.15522 v -1.70745 q 1.74978,0.32456 2.63877,0.32456 0.77612,0 1.12889,-0.16934 0.35278,-0.18344 0.35278,-0.564439 v -1.368777 q 0,-0.381 -0.254,-0.536222 -0.254,-0.169333 -0.83255,-0.169333 h -2.82222 v -4.952996 h 5.78555 v 1.580443 h -3.72533 v 1.862665 h 1.43933 q 0.81844,0 1.59455,0.310444 0.42334,0.183445 0.67734,0.564444 0.254,0.381 0.254,0.889 v 1.919109 q 0,0.550332 -0.21167,0.987782 -0.21167,0.42333 -0.53622,0.64911 -0.28222,0.21166 -0.762,0.33866 -0.46567,0.127 -0.90311,0.16934 -0.508,0.0282 -0.90311,0.0282 z" />
      <path
         id="path3723"
         style="font-style:normal;font-variant:normal;font-weight:bold;font-stretch:normal;font-size:14.1111px;font-family:Play;-inkscape-font-specification:'Play Bold';text-align:end;text-anchor:end;fill:#ff6600;stroke-width:0.264583"
         d="m 282.13103,102.1054 q -0.62089,0 -1.016,-0.0423 -0.39511,-0.0423 -0.86078,-0.16933 -0.47977,-0.14111 -0.77611,-0.39511 -0.29633,-0.26811 -0.49388,-0.762 -0.21167,-0.47978 -0.21167,-1.157109 v -4.388552 q 0,-0.649111 0.19755,-1.142999 0.19756,-0.493889 0.508,-0.776111 0.26811,-0.239889 0.73378,-0.381 0.46567,-0.155222 0.93133,-0.197555 0.53623,-0.02822 0.98778,-0.02822 0.635,0 1.016,0.04233 0.381,0.02822 0.84667,0.169333 0.508,0.155222 0.80433,0.409222 0.29633,0.254 0.508,0.733777 0.21166,0.479778 0.21166,1.171222 v 4.388552 q 0,0.649109 -0.21166,1.142999 -0.19756,0.49389 -0.508,0.762 -0.28222,0.23989 -0.77611,0.39511 -0.47978,0.15522 -0.91722,0.18344 -0.39511,0.0423 -0.97367,0.0423 z m 0.0282,-1.32645 q 0.59267,0 0.84667,-0.0705 0.254,-0.0847 0.33867,-0.29633 0.0847,-0.21167 0.0847,-0.691448 v -4.670774 q 0,-0.479778 -0.0847,-0.691444 -0.0847,-0.211667 -0.33867,-0.282222 -0.254,-0.08467 -0.84667,-0.08467 -0.60677,0 -0.87489,0.08467 -0.254,0.07055 -0.33866,0.282222 -0.0847,0.211666 -0.0847,0.691444 v 4.670774 q 0,0.479778 0.0847,0.691448 0.0847,0.21166 0.33866,0.29633 0.26812,0.0705 0.87489,0.0705 z" />
    </g>
    <text
       id="text1139"
       y="331.86307"
       x="235.10118"
       style="font-size:8.81944px;line-height:1.25;font-family:sans-serif;text-align:center;letter-spacing:-0.0132292px;word-spacing:0px;text-anchor:middle;stroke-width:0.264583"
       xml:space="preserve"><tspan
         style="stroke-width:0.264583"
         y="331.86307"
         x="235.10118"
         id="tspan1137"
         sodipodi:role="line" /></text>
    <path
       style="fill:#ff6600;stroke-width:4.51527;stroke-linecap:round;stroke-linejoin:round;paint-order:stroke fill markers"
       d="m 237.5,358.00004 v 2.24999 0.74983 h 9.5095 v -2.99982 z"
       id="path2152" />
    <path
       id="path2154"
       d="m 237.5,368.00004 v 2.24999 0.74983 h 9.5095 v -2.99982 z"
       style="fill:#ff6600;stroke-width:4.51527;stroke-linecap:round;stroke-linejoin:round;paint-order:stroke fill markers" />
    <g
       style="font-style:normal;font-variant:normal;font-weight:bold;font-stretch:normal;font-size:30.3778px;line-height:1.25;font-family:Play;-inkscape-font-specification:'Play Bold';text-align:center;letter-spacing:-0.0771204px;word-spacing:0px;text-anchor:middle;fill:#ff6600;stroke-width:1.54241"
       id="text2158"
       aria-label="B ">
      <path
         id="path3726"
         style="font-size:31.3972px;fill:#ff6600"
         d="m 40.733078,312.61257 h 8.257464 q 2.91994,0 4.489799,0.43956 1.601258,0.40816 2.260599,1.35008 0.659341,0.91052 0.659341,2.57457 v 2.51177 q 0,0.84773 -0.690738,1.60126 -0.659342,0.75353 -1.56986,1.03611 v 0.15698 q 1.193093,0.12559 2.166406,1.03611 1.004711,0.87912 1.004711,1.97803 v 3.13972 q 0,2.48037 -1.978024,3.51648 -1.978023,1.03611 -6.122454,1.03611 h -8.477244 z m 8.257464,8.28886 q 1.161696,0 1.726846,-0.18839 0.56515,-0.18838 0.753533,-0.59654 0.21978,-0.43956 0.21978,-1.25589 v -1.00471 q 0,-0.72214 -0.188383,-1.06751 -0.188383,-0.37676 -0.78493,-0.53375 -0.56515,-0.15698 -1.821038,-0.15698 h -3.265308 v 4.80377 z m 0.125589,8.60283 q 1.78964,0 2.543173,-0.40816 0.753533,-0.40817 0.753533,-1.31869 v -1.63265 q 0,-1.1303 -0.596547,-1.60126 -0.56515,-0.47096 -2.040818,-0.47096 h -4.14443 v 5.43172 z" />
    </g>
    <g
       style="font-style:normal;font-variant:normal;font-weight:bold;font-stretch:normal;font-size:31.3972px;line-height:1.25;font-family:Play;-inkscape-font-specification:'Play Bold';text-align:center;letter-spacing:-0.0797233px;word-spacing:0px;text-anchor:middle;fill:#ff6600;stroke-width:1.59447"
       id="text2162"
       aria-label="A ">
      <path
         id="path3729"
         style="font-style:normal;font-variant:normal;font-weight:bold;font-stretch:normal;font-size:31.3972px;font-family:Play;-inkscape-font-specification:'Play Bold';fill:#ff6600;stroke-width:1.59447"
         d="m 383.21784,312.59667 h 5.96547 l 7.34695,20.37678 h -4.96076 l -1.82104,-5.36892 h -7.44113 l -1.78964,5.36892 h -4.83517 z m 5.46312,11.74255 -2.57457,-7.66092 h -0.12559 l -2.57457,7.66092 z" />
    </g>
    <path
       inkscape:tile-y0="349.99998"
       inkscape:tile-x0="64.549004"
       inkscape:tile-h="20.00002"
       inkscape:tile-w="35.151786"
       inkscape:tile-cy="359.99999"
       inkscape:tile-cx="82.124897"
       id="path2176"
       d="M 79.857038,349.99998 64.549004,370 H 84.581743 L 99.70079,350 Z"
       style="fill:#ff6600;stroke:none;stroke-width:0.264583px;stroke-linecap:butt;stroke-linejoin:miter;stroke-opacity:1" />
    <path
       style="fill:#ff6600;stroke:none;stroke-width:0.264583px;stroke-linecap:butt;stroke-linejoin:miter;stroke-opacity:1"
       d="M 79.857038,349.99998 64.549004,370 H 84.581743 L 99.70079,350 Z"
       id="use2472"
       inkscape:tile-x0="64.549004"
       inkscape:tile-y0="349.99998" />
    <path
       style="fill:#ff6600;stroke:none;stroke-width:0.264583px;stroke-linecap:butt;stroke-linejoin:miter;stroke-opacity:1"
       d="M 118.524,349.99998 103.21597,370 h 20.03274 l 15.11904,-20 z"
       id="use2474"
       inkscape:tile-x0="64.549004"
       inkscape:tile-y0="349.99998" />
    <path
       transform="scale(0.26458333)"
       d="M 758.57227 1322.834 L 758.57227 1397.8105 L 815.25 1322.834 L 758.57227 1322.834 z M 570.96484 1353.0703 L 536.25 1398.4258 L 611.96484 1398.4258 L 646.25 1353.0703 L 570.96484 1353.0703 z "
       style="fill:#ff6600;stroke:none;stroke-width:0.999999px;stroke-linecap:butt;stroke-linejoin:miter;stroke-opacity:1"
       id="use2478" />
    <path
       transform="scale(0.26458333)"
       d="M 886.39258 1322.834 L 828.53711 1398.4258 L 886.39258 1398.4258 L 886.39258 1322.834 z "
       style="fill:#ff6600;stroke:none;stroke-width:0.999999px;stroke-linecap:butt;stroke-linejoin:miter;stroke-opacity:1"
       id="use2480" />
    <path
       style="fill:#ff6600;stroke:none;stroke-width:0.264583px;stroke-linecap:butt;stroke-linejoin:miter;stroke-opacity:1"
       d="M 273.19186,349.99998 257.88382,370 h 20.03274 l 15.11905,-20 z"
       id="use2482"
       inkscape:tile-x0="64.549004"
       inkscape:tile-y0="349.99998" />
    <path
       style="fill:#ff6600;stroke:none;stroke-width:0.264583px;stroke-linecap:butt;stroke-linejoin:miter;stroke-opacity:1"
       d="M 311.85883,349.99998 296.55079,370 h 20.03274 l 15.11905,-20 z"
       id="use2484"
       inkscape:tile-x0="64.549004"
       inkscape:tile-y0="349.99998" />
    <path
       style="fill:#ff6600;stroke:none;stroke-width:0.264583px;stroke-linecap:butt;stroke-linejoin:miter;stroke-opacity:1"
       d="M 350.52579,349.99998 335.21775,370 h 20.03274 l 15.11905,-20 z"
       id="use2486"
       inkscape:tile-x0="64.549004"
       inkscape:tile-y0="349.99998" />
    <path
       inkscape:tile-y0="349.99998"
       inkscape:tile-x0="64.549004"
       id="path2525"
       d="M 41.757035,349.99998 26.449001,370 H 46.48174 l 15.119047,-20 z"
       style="fill:#ff6600;stroke:none;stroke-width:0.264583px;stroke-linecap:butt;stroke-linejoin:miter;stroke-opacity:1" />
    <path
       inkscape:tile-y0="349.99998"
       inkscape:tile-x0="64.549004"
       id="path2527"
       d="M 388.62582,349.99998 373.31778,370 h 20.03274 l 15.11905,-20 z"
       style="fill:#ff6600;stroke:none;stroke-width:0.264583px;stroke-linecap:butt;stroke-linejoin:miter;stroke-opacity:1" />
    <path
       inkscape:tile-y0="349.99998"
       inkscape:tile-x0="64.549004"
       id="path2531"
       d="M 195.89567,349.99998 180.58763,370 h 20.03274 l 15.11905,-20 z"
       style="fill:#ff6600;stroke:none;stroke-width:0.264583px;stroke-linecap:butt;stroke-linejoin:miter;stroke-opacity:1" />
    <path
       style="fill:#ff6600;stroke:none;stroke-width:0.264583px;stroke-linecap:butt;stroke-linejoin:miter;stroke-opacity:1"
       d="M 157.26647,349.99998 141.95843,370 h 20.03274 l 15.11905,-20 z"
       id="path2533"
       inkscape:tile-x0="64.549004"
       inkscape:tile-y0="349.99998" />
    <g
       style="stroke-width:0.999866"
       transform="matrix(-0.26465478,0,0,0.26458333,-401.83061,-263.56442)"
       inkscape:label="0"
       id="g2876" />
    <path
       d="M 17.502202,6.9999983 V 13.928256 L 7,19.989902 v 50.22949 l 12.002884,-6.927741 12.002886,6.92826 V 84.076428 L 19.002884,91.004688 7,84.076944 V 87.5403 l 10.502202,6.062163 V 107.45897 L 7,113.52113 v 3.46336 l 12.002884,-6.92723 12.002886,6.92775 v 6.92825 h 5.16e-4 v 6.92826 L 19.002884,137.76978 7,130.84204 v 3.46336 l 10.502718,6.06216 v 13.85652 L 7,160.28624 v 3.46387 l 12.002884,-6.92774 12.003402,6.92826 v 13.856 L 19.002884,184.53489 7,177.60714 v 3.46388 l 10.502718,6.06216 V 200.9897 L 7,207.05186 v 3.46335 l 12.002884,-6.92774 6.001702,3.46439 6.0017,3.46387 v 13.85652 l -12.003402,6.92826 -6.001184,-3.46388 -1.500682,2.59778 6.0017,3.46387 v 6.92826 6.92826 l -10.4985839,6.05958 v 20.78993 l 10.4985839,6.05959 v 13.85599 l -10.4985839,6.0596 v 3.46437 l 11.9987499,-6.92568 6.001702,3.4644 1.500683,-2.59828 -6.0017,-3.46441 V 280.6639 l 12.002883,-6.92827 6.001703,3.4644 1.500682,-2.59829 -6.0017,-3.4644 v -13.85651 l 12.002884,-6.92826 6.002218,3.46439 1.500167,-2.59777 -6.0017,-3.46439 v -6.92826 -6.92826 l 12.003399,-6.92774 12.002887,6.92774 v 6.92826 h 3.000851 v -6.92826 l 12.003399,-6.92774 6.126242,3.5357 1.475362,-2.61224 -6.101437,-3.52175 v -13.85652 l 12.003401,-6.92826 6.0017,3.46439 1.50069,-2.59778 -6.0017,-3.46438 v -6.92826 h -3.000855 v 6.92826 l -12.003403,6.92826 -12.003399,-6.92826 v -13.85652 l 6.0017,-3.46439 -1.500167,-2.59777 -6.001702,3.46387 -12.0034,-6.92826 v -13.856 l 12.0034,-6.92826 6.001702,3.46387 1.500167,-2.59778 -6.0017,-3.46438 v -13.85652 l 5.967592,-3.44424 -1.50895,-2.59312 -5.958811,3.43958 -6.0017,-3.46387 -6.0017,-3.46439 v -6.92826 -6.92825 l 12.002884,-6.92775 12.003402,6.92775 v 6.92825 h 3.000849 v -6.92825 l 12.003401,-6.92775 6.0017,3.46387 1.50017,-2.59777 -6.0017,-3.46439 V 93.602463 l 12.0034,-6.92826 12.00289,6.92826 v 6.928247 h 3.00084 v -6.928247 l 12.00341,-6.92826 6.0017,3.464388 1.50068,-2.597775 -6.0017,-3.464388 V 70.219911 l 12.00289,-6.92826 6.00169,3.464388 1.50069,-2.598291 -6.0017,-3.464388 V 46.837359 l 12.00288,-6.92826 6.0017,3.464388 1.50069,-2.59829 -6.0017,-3.464388 V 23.45429 l 12.00288,-6.928259 6.00222,3.464388 1.50017,-2.597775 -6.00171,-3.464388 V 6.9999983 h -3.00084 v 6.9282577 l -12.00341,6.92826 -12.00288,-6.92826 V 6.9999983 h -3.00085 v 6.9282577 l -12.0034,6.92826 -12.00341,-6.92826 V 6.9999983 h -3.00084 v 6.9282577 l -12.00289,6.92826 -12.0034,-6.92826 V 6.9999983 h -3.000851 v 6.9282577 l -12.003403,6.92826 -12.002883,-6.92826 V 6.9999983 h -3.000851 v 6.9282577 l -12.003403,6.92826 -12.003402,-6.92826 V 6.9999983 H 44.509855 V 13.928256 L 32.506452,20.856516 26.504753,17.392644 20.50305,13.928256 V 6.9999983 Z m 28.507819,9.5260327 12.003402,6.928259 v 13.856519 l -12.003402,6.92826 -12.003402,-6.92826 V 23.45429 Z m 27.007137,0 12.003402,6.928259 v 13.856519 l -12.003402,6.92826 -12.002884,-6.92826 V 23.45429 Z m 27.007652,0 12.00289,6.928259 v 13.856519 l -12.00289,6.92826 -12.003401,-6.92826 V 23.45429 Z m 27.00714,0 12.0034,6.928259 v 13.856519 l -12.0034,6.92826 -12.0034,-6.92826 V 23.45429 Z m -94.525498,23.383068 12.003403,6.92826 V 60.69336 L 32.506452,67.621621 20.50305,60.69336 V 46.837359 Z m 81.021928,0 12.00289,6.92826 V 60.69336 l -12.00289,6.928261 -12.0034,-6.928261 V 46.837359 Z m 27.00714,0 12.0034,6.92826 V 60.69336 l -12.0034,6.928261 -12.00341,-6.928261 V 46.837359 Z m -94.525499,23.382552 12.003402,6.92826 v 13.856517 l -12.003402,6.92826 -12.003402,-6.92826 V 70.219911 Z m 27.007137,0 12.003402,6.92826 v 13.856517 l -12.003402,6.92826 -12.002884,-6.92826 V 70.219911 Z m 27.007652,0 12.00289,6.92826 v 13.856517 l -12.00289,6.92826 -12.003401,-6.92826 V 70.219911 Z m 27.00714,0 12.0034,6.92826 v 13.856517 l -12.0034,6.92826 -12.0034,-6.92826 V 70.219911 Z m -58.260526,6.208405 -4.416785,7.648112 h 3.464904 l 4.417301,-7.648112 z m 6.930323,0 -8.834085,15.296224 h 3.465422 l 8.83357,-15.296224 z m 2.513026,7.648112 -4.416785,7.648112 h 3.464907 l 4.416785,-7.648112 z m -18.701184,9.526035 12.003403,6.92826 v 13.856507 l -12.003403,6.92826 -12.003402,-6.92826 V 93.602463 Z m -13.503568,23.383057 12.003402,6.92775 v 6.92825 6.92826 l -12.003402,6.92826 -12.002884,-6.92826 v -6.92826 h -5.18e-4 v -6.92825 z m -13.503569,23.38204 12.003403,6.92826 v 13.85652 l -12.003403,6.92826 -12.002883,-6.92826 v -13.85652 z m 27.007653,46.76562 12.002887,6.92826 v 13.85652 l -12.002887,6.92826 -12.003399,-6.92826 v -13.85652 z m -13.503565,23.38255 12.002883,6.92826 v 13.85652 l -12.002883,6.92826 -12.003403,-6.92826 v -13.85652 z m -13.504088,23.38307 12.003403,6.92774 v 6.92826 6.92826 l -12.003403,6.92826 -12.002883,-6.92826 v -6.92826 -6.92826 z"
       style="opacity:1;fill:#ff6600;stroke:#000000;stroke-width:0.264583px;stroke-linecap:butt;stroke-linejoin:miter;stroke-opacity:1"
       id="path3636" />
  </g>
</svg>
